<?xml version="1.0" encoding="UTF-8" standalone="no"?>
<!DOCTYPE svg PUBLIC "-//W3C//DTD SVG 1.1//EN"
 "http://www.w3.org/Graphics/SVG/1.1/DTD/svg11.dtd">
<!-- Generated by graphviz version 14.1.2 (0)
 -->
<!-- Title: snakemake_dag Pages: 1 -->
<svg width="314pt" height="656pt"
 viewBox="0.00 0.00 314.00 656.00" xmlns="http://www.w3.org/2000/svg" xmlns:xlink="http://www.w3.org/1999/xlink">
<g id="graph0" class="graph" transform="scale(1 1) rotate(0) translate(4 652)">
<title>snakemake_dag</title>
<polygon fill="white" stroke="none" points="-4,4 -4,-652 310,-652 310,4 -4,4"/>
<g id="clust1" class="cluster">
<title>cluster_ingest</title>
<path fill="#eef6ff" stroke="#bbbbbb" d="M111,-584C111,-584 173,-584 173,-584 179,-584 185,-590 185,-596 185,-596 185,-628 185,-628 185,-634 179,-640 173,-640 173,-640 111,-640 111,-640 105,-640 99,-634 99,-628 99,-628 99,-596 99,-596 99,-590 105,-584 111,-584"/>
<text xml:space="preserve" text-anchor="middle" x="142" y="-625.55" font-family="sans" font-size="11.00">1 · fetch inputs</text>
</g>
<g id="clust2" class="cluster">
<title>cluster_perscan</title>
<path fill="#eefcf0" stroke="#bbbbbb" d="M20,-152C20,-152 162,-152 162,-152 168,-152 174,-158 174,-164 174,-164 174,-556 174,-556 174,-562 168,-568 162,-568 162,-568 20,-568 20,-568 14,-568 8,-562 8,-556 8,-556 8,-164 8,-164 8,-158 14,-152 20,-152"/>
<text xml:space="preserve" text-anchor="middle" x="91" y="-553.55" font-family="sans" font-size="11.00">2 · per&#45;scan analysis (per scan)</text>
</g>
<g id="clust3" class="cluster">
<title>cluster_aggregate</title>
<path fill="#fdeef2" stroke="#bbbbbb" d="M186,-8C186,-8 278,-8 278,-8 284,-8 290,-14 290,-20 290,-20 290,-196 290,-196 290,-202 284,-208 278,-208 278,-208 186,-208 186,-208 180,-208 174,-202 174,-196 174,-196 174,-20 174,-20 174,-14 180,-8 186,-8"/>
<text xml:space="preserve" text-anchor="middle" x="232" y="-193.55" font-family="sans" font-size="11.00">3 · combine all scans</text>
</g>
<!-- 5 -->
<g id="node1" class="node">
<title>5</title>
<path fill="none" stroke="#d8b456" stroke-width="2" d="M158.62,-620C158.62,-620 125.38,-620 125.38,-620 119.38,-620 113.38,-614 113.38,-608 113.38,-608 113.38,-596 113.38,-596 113.38,-590 119.38,-584 125.38,-584 125.38,-584 158.62,-584 158.62,-584 164.62,-584 170.62,-590 170.62,-596 170.62,-596 170.62,-608 170.62,-608 170.62,-614 164.62,-620 158.62,-620"/>
<text xml:space="preserve" text-anchor="middle" x="142" y="-598.12" font-family="sans" font-size="10.00">download</text>
</g>
<!-- 4 -->
<g id="node2" class="node">
<title>4</title>
<path fill="none" stroke="#70d856" stroke-width="2" d="M161.62,-548C161.62,-548 122.38,-548 122.38,-548 116.38,-548 110.38,-542 110.38,-536 110.38,-536 110.38,-524 110.38,-524 110.38,-518 116.38,-512 122.38,-512 122.38,-512 161.62,-512 161.62,-512 167.62,-512 173.62,-518 173.62,-524 173.62,-524 173.62,-536 173.62,-536 173.62,-542 167.62,-548 161.62,-548"/>
<text xml:space="preserve" text-anchor="middle" x="142" y="-526.12" font-family="sans" font-size="10.00">parse_slha</text>
</g>
<!-- 5&#45;&gt;4 -->
<g id="edge16" class="edge">
<title>5&#45;&gt;4</title>
<path fill="none" stroke="grey" stroke-width="2" d="M142,-583.34C142,-576.75 142,-569.08 142,-561.67"/>
<polygon fill="grey" stroke="grey" stroke-width="2" points="145.5,-561.93 142,-551.93 138.5,-561.93 145.5,-561.93"/>
</g>
<!-- 3 -->
<g id="node3" class="node">
<title>3</title>
<path fill="none" stroke="#9fd856" stroke-width="2" d="M119.75,-476C119.75,-476 54.25,-476 54.25,-476 48.25,-476 42.25,-470 42.25,-464 42.25,-464 42.25,-452 42.25,-452 42.25,-446 48.25,-440 54.25,-440 54.25,-440 119.75,-440 119.75,-440 125.75,-440 131.75,-446 131.75,-452 131.75,-452 131.75,-464 131.75,-464 131.75,-470 125.75,-476 119.75,-476"/>
<text xml:space="preserve" text-anchor="middle" x="87" y="-454.12" font-family="sans" font-size="10.00">merge_exclusion</text>
</g>
<!-- 5&#45;&gt;3 -->
<g id="edge15" class="edge">
<title>5&#45;&gt;3</title>
<path fill="none" stroke="grey" stroke-width="2" d="M113.89,-583.26C108.86,-578.86 104.21,-573.74 101,-568 87.58,-544.04 84.83,-512.56 84.99,-489.6"/>
<polygon fill="grey" stroke="grey" stroke-width="2" points="88.48,-489.99 85.28,-479.89 81.48,-489.78 88.48,-489.99"/>
</g>
<!-- 1 -->
<g id="node9" class="node">
<title>1</title>
<path fill="none" stroke="#56d8c9" stroke-width="2" d="M216,-116C216,-116 186,-116 186,-116 180,-116 174,-110 174,-104 174,-104 174,-92 174,-92 174,-86 180,-80 186,-80 186,-80 216,-80 216,-80 222,-80 228,-86 228,-92 228,-92 228,-104 228,-104 228,-110 222,-116 216,-116"/>
<text xml:space="preserve" text-anchor="middle" x="201" y="-94.12" font-family="sans" font-size="10.00">report</text>
</g>
<!-- 5&#45;&gt;1 -->
<g id="edge7" class="edge">
<title>5&#45;&gt;1</title>
<path fill="none" stroke="grey" stroke-width="2" d="M171.32,-590.96C218.49,-572.73 306,-529.43 306,-459 306,-459 306,-459 306,-241 306,-197.63 292.4,-186.4 266,-152 258.3,-141.97 248.35,-132.65 238.55,-124.7"/>
<polygon fill="grey" stroke="grey" stroke-width="2" points="240.96,-122.14 230.9,-118.8 236.68,-127.68 240.96,-122.14"/>
</g>
<!-- 4&#45;&gt;3 -->
<g id="edge14" class="edge">
<title>4&#45;&gt;3</title>
<path fill="none" stroke="grey" stroke-width="2" d="M128.12,-511.34C122.3,-503.93 115.4,-495.14 108.92,-486.9"/>
<polygon fill="grey" stroke="grey" stroke-width="2" points="111.87,-484.98 102.94,-479.28 106.36,-489.31 111.87,-484.98"/>
</g>
<!-- 2 -->
<g id="node4" class="node">
<title>2</title>
<path fill="none" stroke="#56d89a" stroke-width="2" d="M55,-404C55,-404 25,-404 25,-404 19,-404 13,-398 13,-392 13,-392 13,-380 13,-380 13,-374 19,-368 25,-368 25,-368 55,-368 55,-368 61,-368 67,-374 67,-380 67,-380 67,-392 67,-392 67,-398 61,-404 55,-404"/>
<text xml:space="preserve" text-anchor="middle" x="40" y="-382.12" font-family="sans" font-size="10.00">project</text>
</g>
<!-- 3&#45;&gt;2 -->
<g id="edge13" class="edge">
<title>3&#45;&gt;2</title>
<path fill="none" stroke="grey" stroke-width="2" d="M75.14,-439.34C70.28,-432.1 64.53,-423.53 59.1,-415.45"/>
<polygon fill="grey" stroke="grey" stroke-width="2" points="62.19,-413.77 53.71,-407.41 56.38,-417.67 62.19,-413.77"/>
</g>
<!-- 8 -->
<g id="node7" class="node">
<title>8</title>
<path fill="none" stroke="#56b1d8" stroke-width="2" d="M162.12,-260C162.12,-260 125.88,-260 125.88,-260 119.88,-260 113.88,-254 113.88,-248 113.88,-248 113.88,-236 113.88,-236 113.88,-230 119.88,-224 125.88,-224 125.88,-224 162.12,-224 162.12,-224 168.12,-224 174.12,-230 174.12,-236 174.12,-236 174.12,-248 174.12,-248 174.12,-254 168.12,-260 162.12,-260"/>
<text xml:space="preserve" text-anchor="middle" x="144" y="-238.12" font-family="sans" font-size="10.00">sensitivity</text>
</g>
<!-- 3&#45;&gt;8 -->
<g id="edge19" class="edge">
<title>3&#45;&gt;8</title>
<path fill="none" stroke="grey" stroke-width="2" d="M87.32,-439.03C88.36,-408.64 92.76,-345.6 111,-296 114.08,-287.62 118.59,-279.15 123.3,-271.51"/>
<polygon fill="grey" stroke="grey" stroke-width="2" points="126.19,-273.49 128.76,-263.21 120.34,-269.64 126.19,-273.49"/>
</g>
<!-- 6 -->
<g id="node5" class="node">
<title>6</title>
<path fill="none" stroke="#d88556" stroke-width="2" d="M162,-332C162,-332 132,-332 132,-332 126,-332 120,-326 120,-320 120,-320 120,-308 120,-308 120,-302 126,-296 132,-296 132,-296 162,-296 162,-296 168,-296 174,-302 174,-308 174,-308 174,-320 174,-320 174,-326 168,-332 162,-332"/>
<text xml:space="preserve" text-anchor="middle" x="147" y="-310.12" font-family="sans" font-size="10.00">classify</text>
</g>
<!-- 2&#45;&gt;6 -->
<g id="edge17" class="edge">
<title>2&#45;&gt;6</title>
<path fill="none" stroke="grey" stroke-width="2" d="M67.28,-367.15C79.98,-358.84 95.3,-348.82 109.11,-339.79"/>
<polygon fill="grey" stroke="grey" stroke-width="2" points="110.79,-342.87 117.24,-334.47 106.95,-337.02 110.79,-342.87"/>
</g>
<!-- 9 -->
<g id="node8" class="node">
<title>9</title>
<path fill="none" stroke="#56d86b" stroke-width="2" d="M80,-188C80,-188 50,-188 50,-188 44,-188 38,-182 38,-176 38,-176 38,-164 38,-164 38,-158 44,-152 50,-152 50,-152 80,-152 80,-152 86,-152 92,-158 92,-164 92,-164 92,-176 92,-176 92,-182 86,-188 80,-188"/>
<text xml:space="preserve" text-anchor="middle" x="65" y="-166.12" font-family="sans" font-size="10.00">plots</text>
</g>
<!-- 2&#45;&gt;9 -->
<g id="edge20" class="edge">
<title>2&#45;&gt;9</title>
<path fill="none" stroke="grey" stroke-width="2" d="M35.69,-367.2C29.17,-337.08 18.96,-274.4 33,-224 35.34,-215.61 39.4,-207.22 43.86,-199.68"/>
<polygon fill="grey" stroke="grey" stroke-width="2" points="46.64,-201.82 49.13,-191.52 40.76,-198.02 46.64,-201.82"/>
</g>
<!-- 2&#45;&gt;1 -->
<g id="edge10" class="edge">
<title>2&#45;&gt;1</title>
<path fill="none" stroke="grey" stroke-width="2" d="M32.02,-367.1C14.4,-324.49 -22.41,-215.89 29,-152 60.5,-112.85 120.3,-101.97 160.41,-99.29"/>
<polygon fill="grey" stroke="grey" stroke-width="2" points="160.35,-102.8 170.17,-98.82 160.01,-95.81 160.35,-102.8"/>
</g>
<!-- 7 -->
<g id="node6" class="node">
<title>7</title>
<path fill="none" stroke="#ced856" stroke-width="2" d="M84,-260C84,-260 54,-260 54,-260 48,-260 42,-254 42,-248 42,-248 42,-236 42,-236 42,-230 48,-224 54,-224 54,-224 84,-224 84,-224 90,-224 96,-230 96,-236 96,-236 96,-248 96,-248 96,-254 90,-260 84,-260"/>
<text xml:space="preserve" text-anchor="middle" x="69" y="-238.12" font-family="sans" font-size="10.00">holes</text>
</g>
<!-- 6&#45;&gt;7 -->
<g id="edge18" class="edge">
<title>6&#45;&gt;7</title>
<path fill="none" stroke="grey" stroke-width="2" d="M127.32,-295.34C118.61,-287.52 108.18,-278.16 98.57,-269.53"/>
<polygon fill="grey" stroke="grey" stroke-width="2" points="100.98,-267 91.2,-262.92 96.31,-272.21 100.98,-267"/>
</g>
<!-- 6&#45;&gt;1 -->
<g id="edge12" class="edge">
<title>6&#45;&gt;1</title>
<path fill="none" stroke="grey" stroke-width="2" d="M174.23,-295.16C199.41,-276.81 234.98,-245.63 249,-208 257.69,-184.68 257.95,-175.22 249,-152 245.37,-142.58 239.2,-133.79 232.47,-126.19"/>
<polygon fill="grey" stroke="grey" stroke-width="2" points="235.05,-123.83 225.57,-119.09 230.03,-128.7 235.05,-123.83"/>
</g>
<!-- 10 -->
<g id="node10" class="node">
<title>10</title>
<path fill="none" stroke="#5682d8" stroke-width="2" d="M228,-188C228,-188 198,-188 198,-188 192,-188 186,-182 186,-176 186,-176 186,-164 186,-164 186,-158 192,-152 198,-152 198,-152 228,-152 228,-152 234,-152 240,-158 240,-164 240,-164 240,-176 240,-176 240,-182 234,-188 228,-188"/>
<text xml:space="preserve" text-anchor="middle" x="213" y="-166.12" font-family="sans" font-size="10.00">validate</text>
</g>
<!-- 6&#45;&gt;10 -->
<g id="edge22" class="edge">
<title>6&#45;&gt;10</title>
<path fill="none" stroke="grey" stroke-width="2" d="M160.95,-295.11C168.23,-285.17 176.87,-272.35 183,-260 192.3,-241.26 199.82,-218.95 205,-201.36"/>
<polygon fill="grey" stroke="grey" stroke-width="2" points="208.33,-202.45 207.67,-191.87 201.59,-200.55 208.33,-202.45"/>
</g>
<!-- 0 -->
<g id="node11" class="node">
<title>0</title>
<path fill="none" stroke="#d85656" stroke-width="2" d="M216,-44C216,-44 186,-44 186,-44 180,-44 174,-38 174,-32 174,-32 174,-20 174,-20 174,-14 180,-8 186,-8 186,-8 216,-8 216,-8 222,-8 228,-14 228,-20 228,-20 228,-32 228,-32 228,-38 222,-44 216,-44"/>
<text xml:space="preserve" text-anchor="middle" x="201" y="-22.12" font-family="sans" font-size="10.00">all</text>
</g>
<!-- 6&#45;&gt;0 -->
<g id="edge1" class="edge">
<title>6&#45;&gt;0</title>
<path fill="none" stroke="grey" stroke-width="2" d="M174.6,-303.08C195.38,-294.43 223.39,-280.09 242,-260 259.3,-241.33 260.54,-232.86 266,-208 278.4,-151.55 270.18,-131.01 243,-80 238.37,-71.31 232.26,-62.62 226.15,-54.87"/>
<polygon fill="grey" stroke="grey" stroke-width="2" points="228.95,-52.77 219.87,-47.3 223.56,-57.23 228.95,-52.77"/>
</g>
<!-- 7&#45;&gt;9 -->
<g id="edge21" class="edge">
<title>7&#45;&gt;9</title>
<path fill="none" stroke="grey" stroke-width="2" d="M67.99,-223.34C67.61,-216.75 67.18,-209.08 66.75,-201.67"/>
<polygon fill="grey" stroke="grey" stroke-width="2" points="70.26,-201.71 66.2,-191.92 63.27,-202.11 70.26,-201.71"/>
</g>
<!-- 7&#45;&gt;1 -->
<g id="edge11" class="edge">
<title>7&#45;&gt;1</title>
<path fill="none" stroke="grey" stroke-width="2" d="M86.37,-223.29C91.15,-218.37 96.3,-213 101,-208 124.05,-183.47 129.24,-176.8 152,-152 159.79,-143.51 168.32,-134.27 176.03,-125.93"/>
<polygon fill="grey" stroke="grey" stroke-width="2" points="178.35,-128.57 182.58,-118.86 173.22,-123.82 178.35,-128.57"/>
</g>
<!-- 7&#45;&gt;10 -->
<g id="edge23" class="edge">
<title>7&#45;&gt;10</title>
<path fill="none" stroke="grey" stroke-width="2" d="M96.65,-227.19C99.44,-226.02 102.25,-224.94 105,-224 136.44,-213.29 149.08,-224.34 178,-208 182.76,-205.31 187.27,-201.76 191.36,-197.92"/>
<polygon fill="grey" stroke="grey" stroke-width="2" points="193.67,-200.57 198.01,-190.9 188.59,-195.75 193.67,-200.57"/>
</g>
<!-- 7&#45;&gt;0 -->
<g id="edge5" class="edge">
<title>7&#45;&gt;0</title>
<path fill="none" stroke="grey" stroke-width="2" d="M41.26,-230.9C31.13,-225.7 20.75,-218.25 15,-208 -13.85,-156.56 5.97,-119.24 50,-80 81.13,-52.26 127.65,-38.83 160.83,-32.46"/>
<polygon fill="grey" stroke="grey" stroke-width="2" points="161.04,-35.98 170.28,-30.81 159.83,-29.09 161.04,-35.98"/>
</g>
<!-- 8&#45;&gt;1 -->
<g id="edge8" class="edge">
<title>8&#45;&gt;1</title>
<path fill="none" stroke="grey" stroke-width="2" d="M150.21,-223.13C156.59,-205.05 166.97,-176.39 177,-152 180.19,-144.25 183.83,-135.95 187.3,-128.28"/>
<polygon fill="grey" stroke="grey" stroke-width="2" points="190.44,-129.83 191.43,-119.28 184.08,-126.91 190.44,-129.83"/>
</g>
<!-- 8&#45;&gt;10 -->
<g id="edge24" class="edge">
<title>8&#45;&gt;10</title>
<path fill="none" stroke="grey" stroke-width="2" d="M162.49,-223.33C167.56,-218.41 173.03,-213.03 178,-208 181.14,-204.82 184.4,-201.45 187.62,-198.1"/>
<polygon fill="grey" stroke="grey" stroke-width="2" points="189.98,-200.69 194.33,-191.03 184.91,-195.87 189.98,-200.69"/>
</g>
<!-- 8&#45;&gt;0 -->
<g id="edge2" class="edge">
<title>8&#45;&gt;0</title>
<path fill="none" stroke="grey" stroke-width="2" d="M113.14,-226.87C110.41,-225.83 107.67,-224.85 105,-224 72.12,-213.49 50.75,-234.8 29,-208 13.32,-188.67 18.6,-174.61 29,-152 54.55,-96.45 119.05,-60.45 161.4,-41.96"/>
<polygon fill="grey" stroke="grey" stroke-width="2" points="162.57,-45.26 170.44,-38.17 159.86,-38.81 162.57,-45.26"/>
</g>
<!-- 9&#45;&gt;1 -->
<g id="edge9" class="edge">
<title>9&#45;&gt;1</title>
<path fill="none" stroke="grey" stroke-width="2" d="M92.85,-154.67C112.74,-144.43 139.78,-130.51 161.84,-119.15"/>
<polygon fill="grey" stroke="grey" stroke-width="2" points="163.21,-122.39 170.5,-114.7 160,-116.17 163.21,-122.39"/>
</g>
<!-- 9&#45;&gt;0 -->
<g id="edge4" class="edge">
<title>9&#45;&gt;0</title>
<path fill="none" stroke="grey" stroke-width="2" d="M82.22,-151.02C105.63,-126.58 147.67,-82.69 174.94,-54.21"/>
<polygon fill="grey" stroke="grey" stroke-width="2" points="177.43,-56.67 181.82,-47.02 172.38,-51.83 177.43,-56.67"/>
</g>
<!-- 1&#45;&gt;0 -->
<g id="edge3" class="edge">
<title>1&#45;&gt;0</title>
<path fill="none" stroke="grey" stroke-width="2" d="M201,-79.34C201,-72.75 201,-65.08 201,-57.67"/>
<polygon fill="grey" stroke="grey" stroke-width="2" points="204.5,-57.93 201,-47.93 197.5,-57.93 204.5,-57.93"/>
</g>
<!-- 10&#45;&gt;0 -->
<g id="edge6" class="edge">
<title>10&#45;&gt;0</title>
<path fill="none" stroke="grey" stroke-width="2" d="M223.77,-151.16C233.27,-133.12 244.53,-104.47 237,-80 234.32,-71.29 229.67,-62.72 224.58,-55.1"/>
<polygon fill="grey" stroke="grey" stroke-width="2" points="227.49,-53.16 218.77,-47.15 221.84,-57.29 227.49,-53.16"/>
</g>
</g>
</svg>
