<?xml version="1.0" encoding="UTF-8" standalone="no"?>
<!DOCTYPE svg PUBLIC "-//W3C//DTD SVG 1.1//EN"
 "http://www.w3.org/Graphics/SVG/1.1/DTD/svg11.dtd">
<!-- Generated by graphviz version 14.1.2 (0)
 -->
<!-- Title: snakemake_dag Pages: 1 -->
<svg width="266pt" height="548pt"
 viewBox="0.00 0.00 266.00 548.00" xmlns="http://www.w3.org/2000/svg" xmlns:xlink="http://www.w3.org/1999/xlink">
<g id="graph0" class="graph" transform="scale(1 1) rotate(0) translate(4 544)">
<title>snakemake_dag</title>
<polygon fill="white" stroke="none" points="-4,4 -4,-544 261.56,-544 261.56,4 -4,4"/>
<!-- 0 -->
<g id="node1" class="node">
<title>0</title>
<path fill="none" stroke="#d85656" stroke-width="2" d="M114.56,-36C114.56,-36 84.56,-36 84.56,-36 78.56,-36 72.56,-30 72.56,-24 72.56,-24 72.56,-12 72.56,-12 72.56,-6 78.56,0 84.56,0 84.56,0 114.56,0 114.56,0 120.56,0 126.56,-6 126.56,-12 126.56,-12 126.56,-24 126.56,-24 126.56,-30 120.56,-36 114.56,-36"/>
<text xml:space="preserve" text-anchor="middle" x="99.56" y="-14.12" font-family="sans" font-size="10.00">all</text>
</g>
<!-- 1 -->
<g id="node2" class="node">
<title>1</title>
<path fill="none" stroke="#56c1d8" stroke-width="2" d="M169.56,-108C169.56,-108 139.56,-108 139.56,-108 133.56,-108 127.56,-102 127.56,-96 127.56,-96 127.56,-84 127.56,-84 127.56,-78 133.56,-72 139.56,-72 139.56,-72 169.56,-72 169.56,-72 175.56,-72 181.56,-78 181.56,-84 181.56,-84 181.56,-96 181.56,-96 181.56,-102 175.56,-108 169.56,-108"/>
<text xml:space="preserve" text-anchor="middle" x="154.56" y="-86.12" font-family="sans" font-size="10.00">report</text>
</g>
<!-- 1&#45;&gt;0 -->
<g id="edge4" class="edge">
<title>1&#45;&gt;0</title>
<path fill="none" stroke="grey" stroke-width="2" d="M140.68,-71.34C134.86,-63.93 127.95,-55.14 121.48,-46.9"/>
<polygon fill="grey" stroke="grey" stroke-width="2" points="124.42,-44.98 115.49,-39.28 118.92,-49.31 124.42,-44.98"/>
</g>
<!-- 2 -->
<g id="node3" class="node">
<title>2</title>
<path fill="none" stroke="#56d8c1" stroke-width="2" d="M190.56,-324C190.56,-324 160.56,-324 160.56,-324 154.56,-324 148.56,-318 148.56,-312 148.56,-312 148.56,-300 148.56,-300 148.56,-294 154.56,-288 160.56,-288 160.56,-288 190.56,-288 190.56,-288 196.56,-288 202.56,-294 202.56,-300 202.56,-300 202.56,-312 202.56,-312 202.56,-318 196.56,-324 190.56,-324"/>
<text xml:space="preserve" text-anchor="middle" x="175.56" y="-302.12" font-family="sans" font-size="10.00">project</text>
</g>
<!-- 2&#45;&gt;1 -->
<g id="edge6" class="edge">
<title>2&#45;&gt;1</title>
<path fill="none" stroke="grey" stroke-width="2" d="M173.8,-287.12C170.22,-250.62 162.03,-167.13 157.57,-121.74"/>
<polygon fill="grey" stroke="grey" stroke-width="2" points="161.08,-121.6 156.62,-111.99 154.11,-122.28 161.08,-121.6"/>
</g>
<!-- 6 -->
<g id="node7" class="node">
<title>6</title>
<path fill="none" stroke="#d88d56" stroke-width="2" d="M97.56,-252C97.56,-252 67.56,-252 67.56,-252 61.56,-252 55.56,-246 55.56,-240 55.56,-240 55.56,-228 55.56,-228 55.56,-222 61.56,-216 67.56,-216 67.56,-216 97.56,-216 97.56,-216 103.56,-216 109.56,-222 109.56,-228 109.56,-228 109.56,-240 109.56,-240 109.56,-246 103.56,-252 97.56,-252"/>
<text xml:space="preserve" text-anchor="middle" x="82.56" y="-230.12" font-family="sans" font-size="10.00">classify</text>
</g>
<!-- 2&#45;&gt;6 -->
<g id="edge14" class="edge">
<title>2&#45;&gt;6</title>
<path fill="none" stroke="grey" stroke-width="2" d="M152.09,-287.34C141.38,-279.27 128.48,-269.57 116.72,-260.72"/>
<polygon fill="grey" stroke="grey" stroke-width="2" points="118.85,-257.94 108.76,-254.72 114.64,-263.53 118.85,-257.94"/>
</g>
<!-- 8 -->
<g id="node9" class="node">
<title>8</title>
<path fill="none" stroke="#56d88a" stroke-width="2" d="M245.56,-180C245.56,-180 215.56,-180 215.56,-180 209.56,-180 203.56,-174 203.56,-168 203.56,-168 203.56,-156 203.56,-156 203.56,-150 209.56,-144 215.56,-144 215.56,-144 245.56,-144 245.56,-144 251.56,-144 257.56,-150 257.56,-156 257.56,-156 257.56,-168 257.56,-168 257.56,-174 251.56,-180 245.56,-180"/>
<text xml:space="preserve" text-anchor="middle" x="230.56" y="-158.12" font-family="sans" font-size="10.00">plots</text>
</g>
<!-- 2&#45;&gt;8 -->
<g id="edge16" class="edge">
<title>2&#45;&gt;8</title>
<path fill="none" stroke="grey" stroke-width="2" d="M182.52,-287.02C191.7,-263.33 207.95,-221.35 218.99,-192.86"/>
<polygon fill="grey" stroke="grey" stroke-width="2" points="222.21,-194.25 222.55,-183.66 215.68,-191.72 222.21,-194.25"/>
</g>
<!-- 3 -->
<g id="node4" class="node">
<title>3</title>
<path fill="none" stroke="#88d856" stroke-width="2" d="M208.31,-396C208.31,-396 142.81,-396 142.81,-396 136.81,-396 130.81,-390 130.81,-384 130.81,-384 130.81,-372 130.81,-372 130.81,-366 136.81,-360 142.81,-360 142.81,-360 208.31,-360 208.31,-360 214.31,-360 220.31,-366 220.31,-372 220.31,-372 220.31,-384 220.31,-384 220.31,-390 214.31,-396 208.31,-396"/>
<text xml:space="preserve" text-anchor="middle" x="175.56" y="-374.12" font-family="sans" font-size="10.00">merge_exclusion</text>
</g>
<!-- 3&#45;&gt;2 -->
<g id="edge10" class="edge">
<title>3&#45;&gt;2</title>
<path fill="none" stroke="grey" stroke-width="2" d="M175.56,-359.34C175.56,-352.75 175.56,-345.08 175.56,-337.67"/>
<polygon fill="grey" stroke="grey" stroke-width="2" points="179.06,-337.93 175.56,-327.93 172.06,-337.93 179.06,-337.93"/>
</g>
<!-- 4 -->
<g id="node5" class="node">
<title>4</title>
<path fill="none" stroke="#59d856" stroke-width="2" d="M225.18,-468C225.18,-468 185.93,-468 185.93,-468 179.93,-468 173.93,-462 173.93,-456 173.93,-456 173.93,-444 173.93,-444 173.93,-438 179.93,-432 185.93,-432 185.93,-432 225.18,-432 225.18,-432 231.18,-432 237.18,-438 237.18,-444 237.18,-444 237.18,-456 237.18,-456 237.18,-462 231.18,-468 225.18,-468"/>
<text xml:space="preserve" text-anchor="middle" x="205.56" y="-446.12" font-family="sans" font-size="10.00">parse_slha</text>
</g>
<!-- 4&#45;&gt;3 -->
<g id="edge11" class="edge">
<title>4&#45;&gt;3</title>
<path fill="none" stroke="grey" stroke-width="2" d="M197.99,-431.34C195.06,-424.51 191.63,-416.5 188.34,-408.83"/>
<polygon fill="grey" stroke="grey" stroke-width="2" points="191.58,-407.5 184.42,-399.68 185.14,-410.25 191.58,-407.5"/>
</g>
<!-- 5 -->
<g id="node6" class="node">
<title>5</title>
<path fill="none" stroke="#d8bc56" stroke-width="2" d="M192.18,-540C192.18,-540 158.93,-540 158.93,-540 152.93,-540 146.93,-534 146.93,-528 146.93,-528 146.93,-516 146.93,-516 146.93,-510 152.93,-504 158.93,-504 158.93,-504 192.18,-504 192.18,-504 198.18,-504 204.18,-510 204.18,-516 204.18,-516 204.18,-528 204.18,-528 204.18,-534 198.18,-540 192.18,-540"/>
<text xml:space="preserve" text-anchor="middle" x="175.56" y="-518.12" font-family="sans" font-size="10.00">download</text>
</g>
<!-- 5&#45;&gt;3 -->
<g id="edge12" class="edge">
<title>5&#45;&gt;3</title>
<path fill="none" stroke="grey" stroke-width="2" d="M170.98,-503.47C168.53,-493.22 165.78,-479.97 164.56,-468 162.92,-452.08 162.92,-447.92 164.56,-432 165.32,-424.52 166.69,-416.54 168.2,-409.1"/>
<polygon fill="grey" stroke="grey" stroke-width="2" points="171.58,-410 170.32,-399.48 164.75,-408.49 171.58,-410"/>
</g>
<!-- 5&#45;&gt;4 -->
<g id="edge13" class="edge">
<title>5&#45;&gt;4</title>
<path fill="none" stroke="grey" stroke-width="2" d="M183.13,-503.34C186.05,-496.51 189.48,-488.5 192.77,-480.83"/>
<polygon fill="grey" stroke="grey" stroke-width="2" points="195.97,-482.25 196.69,-471.68 189.54,-479.5 195.97,-482.25"/>
</g>
<!-- 6&#45;&gt;0 -->
<g id="edge1" class="edge">
<title>6&#45;&gt;0</title>
<path fill="none" stroke="grey" stroke-width="2" d="M63.08,-215.09C32.59,-184.79 -20.11,-121.87 8.56,-72 19.62,-52.76 40.65,-39.84 59.72,-31.59"/>
<polygon fill="grey" stroke="grey" stroke-width="2" points="61,-34.85 69.02,-27.92 58.43,-28.33 61,-34.85"/>
</g>
<!-- 6&#45;&gt;1 -->
<g id="edge7" class="edge">
<title>6&#45;&gt;1</title>
<path fill="none" stroke="grey" stroke-width="2" d="M95.87,-215.44C103.13,-205.4 111.95,-192.36 118.56,-180 128.68,-161.04 137.74,-138.61 144.23,-121.01"/>
<polygon fill="grey" stroke="grey" stroke-width="2" points="147.47,-122.34 147.56,-111.74 140.89,-119.97 147.47,-122.34"/>
</g>
<!-- 7 -->
<g id="node8" class="node">
<title>7</title>
<path fill="none" stroke="#bed856" stroke-width="2" d="M97.56,-180C97.56,-180 67.56,-180 67.56,-180 61.56,-180 55.56,-174 55.56,-168 55.56,-168 55.56,-156 55.56,-156 55.56,-150 61.56,-144 67.56,-144 67.56,-144 97.56,-144 97.56,-144 103.56,-144 109.56,-150 109.56,-156 109.56,-156 109.56,-168 109.56,-168 109.56,-174 103.56,-180 97.56,-180"/>
<text xml:space="preserve" text-anchor="middle" x="82.56" y="-158.12" font-family="sans" font-size="10.00">holes</text>
</g>
<!-- 6&#45;&gt;7 -->
<g id="edge15" class="edge">
<title>6&#45;&gt;7</title>
<path fill="none" stroke="grey" stroke-width="2" d="M82.56,-215.34C82.56,-208.75 82.56,-201.08 82.56,-193.67"/>
<polygon fill="grey" stroke="grey" stroke-width="2" points="86.06,-193.93 82.56,-183.93 79.06,-193.93 86.06,-193.93"/>
</g>
<!-- 9 -->
<g id="node10" class="node">
<title>9</title>
<path fill="none" stroke="#568ad8" stroke-width="2" d="M59.56,-108C59.56,-108 29.56,-108 29.56,-108 23.56,-108 17.56,-102 17.56,-96 17.56,-96 17.56,-84 17.56,-84 17.56,-78 23.56,-72 29.56,-72 29.56,-72 59.56,-72 59.56,-72 65.56,-72 71.56,-78 71.56,-84 71.56,-84 71.56,-96 71.56,-96 71.56,-102 65.56,-108 59.56,-108"/>
<text xml:space="preserve" text-anchor="middle" x="44.56" y="-86.12" font-family="sans" font-size="10.00">validate</text>
</g>
<!-- 6&#45;&gt;9 -->
<g id="edge17" class="edge">
<title>6&#45;&gt;9</title>
<path fill="none" stroke="grey" stroke-width="2" d="M66.69,-215.26C59.06,-205.57 50.69,-192.93 46.56,-180 40.57,-161.3 40.04,-139.24 41.01,-121.76"/>
<polygon fill="grey" stroke="grey" stroke-width="2" points="44.49,-122.15 41.8,-111.9 37.52,-121.59 44.49,-122.15"/>
</g>
<!-- 7&#45;&gt;0 -->
<g id="edge2" class="edge">
<title>7&#45;&gt;0</title>
<path fill="none" stroke="grey" stroke-width="2" d="M84.71,-143.02C87.52,-119.54 92.48,-78.11 95.89,-49.64"/>
<polygon fill="grey" stroke="grey" stroke-width="2" points="99.35,-50.19 97.06,-39.84 92.4,-49.36 99.35,-50.19"/>
</g>
<!-- 7&#45;&gt;1 -->
<g id="edge8" class="edge">
<title>7&#45;&gt;1</title>
<path fill="none" stroke="grey" stroke-width="2" d="M100.72,-143.34C108.68,-135.6 118.19,-126.36 126.98,-117.81"/>
<polygon fill="grey" stroke="grey" stroke-width="2" points="129.24,-120.49 133.97,-111.01 124.36,-115.47 129.24,-120.49"/>
</g>
<!-- 7&#45;&gt;9 -->
<g id="edge18" class="edge">
<title>7&#45;&gt;9</title>
<path fill="none" stroke="grey" stroke-width="2" d="M72.97,-143.34C69.17,-136.34 64.7,-128.12 60.45,-120.28"/>
<polygon fill="grey" stroke="grey" stroke-width="2" points="63.57,-118.68 55.72,-111.56 57.41,-122.02 63.57,-118.68"/>
</g>
<!-- 8&#45;&gt;0 -->
<g id="edge3" class="edge">
<title>8&#45;&gt;0</title>
<path fill="none" stroke="grey" stroke-width="2" d="M226.08,-143.13C220.47,-123.74 209.26,-92.77 190.56,-72 176.44,-56.32 156.57,-44.01 138.99,-35.22"/>
<polygon fill="grey" stroke="grey" stroke-width="2" points="140.56,-32.09 130.03,-30.98 137.57,-38.42 140.56,-32.09"/>
</g>
<!-- 8&#45;&gt;1 -->
<g id="edge9" class="edge">
<title>8&#45;&gt;1</title>
<path fill="none" stroke="grey" stroke-width="2" d="M211.38,-143.34C202.89,-135.52 192.73,-126.16 183.36,-117.53"/>
<polygon fill="grey" stroke="grey" stroke-width="2" points="185.95,-115.15 176.22,-110.95 181.2,-120.3 185.95,-115.15"/>
</g>
<!-- 9&#45;&gt;0 -->
<g id="edge5" class="edge">
<title>9&#45;&gt;0</title>
<path fill="none" stroke="grey" stroke-width="2" d="M58.43,-71.34C64.25,-63.93 71.16,-55.14 77.63,-46.9"/>
<polygon fill="grey" stroke="grey" stroke-width="2" points="80.19,-49.31 83.62,-39.28 74.69,-44.98 80.19,-49.31"/>
</g>
</g>
</svg>
